<?xml version="1.0" encoding="UTF-8" standalone="no"?>
<!-- Created with Inkscape (http://www.inkscape.org/) -->
<svg xmlns:dc="http://purl.org/dc/elements/1.1/" xmlns:cc="http://creativecommons.org/ns#" xmlns:rdf="http://www.w3.org/1999/02/22-rdf-syntax-ns#" xmlns:svg="http://www.w3.org/2000/svg" xmlns="http://www.w3.org/2000/svg" xmlns:sodipodi="http://sodipodi.sourceforge.net/DTD/sodipodi-0.dtd" xmlns:inkscape="http://www.inkscape.org/namespaces/inkscape" width="625" height="1000" id="svg2" version="1.1" inkscape:version="0.47 r22583" sodipodi:docname="New document 1">
  <defs id="defs4">
    <inkscape:perspective sodipodi:type="inkscape:persp3d" inkscape:vp_x="0 : 526.18109 : 1" inkscape:vp_y="0 : 1000 : 0" inkscape:vp_z="744.09448 : 526.18109 : 1" inkscape:persp3d-origin="372.04724 : 350.78739 : 1" id="perspective10"/>
    <inkscape:perspective id="perspective2824" inkscape:persp3d-origin="0.5 : 0.33333333 : 1" inkscape:vp_z="1 : 0.5 : 1" inkscape:vp_y="0 : 1000 : 0" inkscape:vp_x="0 : 0.5 : 1" sodipodi:type="inkscape:persp3d"/>
  </defs>
  <sodipodi:namedview id="base" pagecolor="#ffffff" bordercolor="#666666" borderopacity="1.0" inkscape:pageopacity="0.0" inkscape:pageshadow="2" inkscape:zoom="0.35" inkscape:cx="-118.01887" inkscape:cy="502.78524" inkscape:document-units="px" inkscape:current-layer="layer1" showgrid="false" inkscape:window-width="826" inkscape:window-height="753" inkscape:window-x="185" inkscape:window-y="111" inkscape:window-maximized="0"/>
  <g inkscape:label="Layer 1" inkscape:groupmode="layer" id="layer1" transform="translate(-134.44745,-35.147456)">
    <path style="fill:#000000" d="m 422.28461,1034.0714 c -42.67546,6.2917 -37.12862,-45.31039 -74.68512,-50.93959 -45.52921,-1.50162 -54.54711,-39.34345 -49.27155,-78.03543 -4.33137,-26.52417 20.28924,-77.07881 -18.31114,-81.79343 -25.18805,-11.52415 -24.783,-48.92858 -43.83822,-68.61879 -29.06535,-45.16058 -59.28402,-97.0199 -46.38321,-152.97394 5.83952,-18.20547 10.41228,-49.79004 36.00426,-42.03615 26.80779,9.92569 10.27052,-25.29041 39.17019,-18.35188 -10.2531,-33.07886 -37.17784,-66.41737 -20.815,-102.328 -30.62614,-8.53476 -70.0091,-42.44366 -40.51281,-74.17658 47.40028,-26.01044 -25.53924,-40.37777 -13.46082,-77.94238 5.85113,-23.20199 40.368,-30.17649 10.99887,-52.1198 -29.20649,-44.47296 35.25173,-69.37399 17.63637,-110.32733 12.10807,-47.147944 65.2158,-64.097262 107.07012,-75.526718 74.1355,-19.393562 152.33853,-15.900118 226.68829,0.552496 40.32217,9.365847 83.95572,12.78824 120.06741,34.363468 27.82726,22.407364 5.67375,67.578414 -9.096,78.698494 32.41475,11.71355 48.04627,62.45123 14.31345,82.11365 -43.53385,12.21893 30.23195,20.28316 11.24246,52.33961 14.39715,34.48726 -61.25042,35.35984 -16.35863,58.09018 30.44849,28.07262 1.81525,77.71512 -35.51632,79.84601 21.16129,14.28595 22.09791,42.01568 8.31788,61.96509 -12.62785,17.65532 -46.75006,54.48296 -2.60028,45.09254 6.03408,28.89666 52.69651,9.25271 54.36122,47.76115 13.59342,48.88697 19.58891,114.19278 -25.99842,148.71395 -35.57214,17.479 -27.49036,72.63463 -65.69048,87.92262 -20.3587,17.4952 -6.15423,57.55705 -10.6659,82.89476 2.34928,29.67697 14.19075,60.62539 -26.65837,65.72324 -42.70488,5.0375 -55.08628,54.82516 -100.0253,57.78186 -15.23628,1.8074 -30.66863,1.7217 -45.98295,1.3109 z m 81.65514,-45.64733 c 16.32258,-21.17973 -39.34802,-0.39111 -51.25681,-6.93326 -19.96167,2.87037 -57.80819,-5.9239 -68.99363,-1.00104 24.27953,19.92343 60.75108,10.30098 90.38817,13.11057 9.74377,-1.99916 23.6652,5.01368 29.86227,-5.17627 z m -136.14227,-31 c 10.0221,-5.50873 26.75776,-0.83515 39.26554,-2.5739 47.66244,0.80532 95.22008,-3.11436 142.55055,-7.01331 9.14523,11.34245 36.55428,1.23129 27.69659,-18.67618 -0.0179,-31.36059 -1.62164,-62.9053 2.36864,-94.04556 -38.48324,-21.11122 27.11831,-14.55288 34.24647,-38.54397 17.65444,-45.43438 48.62436,-83.72651 67.77745,-128.39708 -10.01714,-26.35763 17.66059,-42.64611 1.04727,-69.29436 -3.7081,-19.32795 -16.25728,-25.18735 -34.24478,-21.72717 -22.15899,6.99906 -8.12218,-29.17891 -30.231,-20.03268 -38.24556,-0.15346 -76.49112,-0.30693 -114.73668,-0.4604 4.1743,25.0753 -19.11311,18.50144 -34.49629,19.01461 -21.76195,-4.89922 -65.13078,13.47199 -68.75663,-13.64516 -1.05711,-12.97591 -25.22781,-3.15005 -36.0247,-6.51757 -31.15697,-0.39959 -62.31484,-0.909 -93.4753,-0.82332 -0.11522,30.56774 -32.06201,16.25207 -49.01916,23.07286 -4.4064,15.09096 -27.3464,58.06851 -0.0882,55.78648 145.88065,0.41313 291.81852,-2.28556 437.6393,2.77467 25.53581,15.20898 -37.36522,9.8734 -51.59348,11.45114 -129.7986,3.24925 -259.66668,-2.05553 -389.40873,-1.39017 -5.64824,35.56423 37.92379,75.57282 51.15821,112.74231 4.03615,35.40902 29.72018,56.12871 63.23552,58.15555 0.9655,10.20763 -27.86045,21.03007 -4.00665,31.82795 -0.57312,31.23593 -7.9064,63.31858 2.27866,98.55751 10.61073,3.12757 27.40077,14.33999 36.81742,9.75775 z m 0.50397,-15.85636 c -49.78724,-11.68767 22.73463,-13.93514 39.9396,-12.11851 47.7751,0.36686 95.11732,-6.65815 142.55487,-10.53718 0.32206,22.77915 -62.70624,16.07879 -85.72092,22.72841 -32.15548,2.47584 -64.65096,3.20003 -96.77355,-0.0727 z m 23.57748,-29.63265 c -26.68793,5.99296 -28.69658,-17.57649 0.20257,-11.20129 50.12571,0.79811 100.28112,-9.78588 149.99177,-8.4807 -9.44933,21.58248 -75.7877,14.60434 -104.55381,19.7537 -15.14203,0.17058 -30.58995,2.07441 -45.64053,-0.0717 z m 3.35763,-29.60629 c -17.84731,4.40882 -70.78165,-8.65376 -27.12802,-13.07946 57.20313,-3.72042 114.68764,-1.07549 171.72766,-7.4657 22.13545,12.99963 -37.29036,15.26715 -50.77335,17.31779 -31.17366,2.57348 -62.56914,3.33697 -93.82629,3.22737 z m 19.979,-31.0225 c -15.74669,3.73525 -77.37508,-7.93118 -32.63565,-11.73197 52.64554,-0.83879 105.19399,-4.31173 157.74768,-7.30169 -1.94888,23.47521 -61.28785,13.09628 -85.04713,18.4712 -13.34544,0.35578 -26.71674,1.13444 -40.0649,0.56246 z m 6.06905,-18.56953 c -21.77826,-7.38749 -75.31233,6.45506 -78.74057,-15.497 70.96236,-1.65987 142.43949,4.64498 213.59788,0.95831 -19.45805,24.14735 -77.64972,9.78018 -112.13618,14.96753 -7.57492,-0.0229 -15.15419,-0.032 -22.72113,-0.42884 z m 84.73221,-257.88937 c 18.6234,-23.89852 66.07217,-10.75374 96.21131,-12.12718 25.37608,-2.50594 30.68644,21.1575 0.7729,13.37282 -32.28359,-0.49042 -64.84341,1.43643 -96.98421,-1.24564 z m -232.32303,-0.54938 c 26.40637,-22.77832 81.98407,-14.76048 116.15259,-5.93808 -15.21549,15.89567 -74.01182,2.7728 -104.79142,7.02587 l -8.843,-0.38579 -2.51817,-0.702 z M 483.51993,561.7747 c 2.17871,-22.90035 23.03128,-55.0354 24.01468,-74.95698 -43.47546,-8.81284 -87.4153,-18.15867 -132.05867,-12.84276 26.67556,19.51001 11.2035,66.80166 41.25891,73.68398 -4.04105,25.24955 28.4339,9.53042 42.91812,14.53749 7.93344,-0.1965 15.99497,1.03084 23.86696,-0.42173 z M 379.28461,541.58509 c 3.41599,-32.55827 -41.58845,-84.66472 15.48536,-81.51909 80.65885,-20.19347 166.25027,-15.9245 244.95625,-44.3669 47.00692,-15.05085 24.46244,-64.72657 -13.69044,-68.99388 -61.38386,13.52566 -124.21955,17.76849 -186.1004,27.9144 31.30435,10.69929 72.26128,-1.60249 106.37032,-6.50456 17.34987,2.1492 58.37767,-23.578 61.05591,-5.24015 -100.78192,40.09441 -214.75518,23.38411 -315.57924,63.36734 -38.0664,20.84093 -8.15466,-22.548 14.31413,-19.03504 15.70215,-3.71403 74.39049,-16.63698 27.41885,-13.96185 -16.23154,6.49232 -37.82489,2.4659 -11.00701,-7.73216 103.93011,-34.22499 217.43457,-24.8115 320.11862,-63.64013 50.47405,-7.32772 17.70336,-65.94773 -20.38272,-60.02496 -41.06822,-6.73475 -81.45468,9.75172 -122.1587,14.76553 -17.77541,3.88872 -92.78292,14.90155 -36.53739,11.75166 44.55195,-2.73977 88.02506,-16.76038 132.14566,-19.75409 16.89049,9.46305 -46.09147,17.02571 -59.7491,21.57217 -92.74241,18.95494 -190.34051,17.80705 -278.89476,54.30084 -0.572,-28.29276 60.61945,-27.05262 86.49514,-34.95894 19.76536,-16.95712 -71.49029,11.42711 -21.59503,-11.31988 113.07901,-38.64025 236.05594,-33.03002 349.16717,-71.74581 24.62891,-42.62503 -42.31782,-61.93817 -75.70654,-54.1891 -55.94528,2.27744 -110.67158,15.50189 -165.89,23.5996 17.19261,7.61915 71.45378,-6.93439 103.1841,-7.32029 13.07457,-4.94818 55.36243,-2.90665 20.80798,6.81536 -98.0545,20.89156 -199.60503,24.39739 -295.94331,53.25814 -2.87798,-17.38294 48.44438,-16.09534 57.58414,-38.0514 68.37679,-30.62058 144.91526,-33.61806 217.99761,-45.41272 43.54751,-6.5317 90.89103,-6.97379 129.29259,-30.71933 C 690.29401,90.694402 618.71671,86.382905 590.54356,77.998365 535.34326,73.09212 482.62539,49.503458 426.40866,55.350123 c -56.80527,4.02086 -117.09322,13.764464 -164.2457,47.871227 -26.32236,15.20557 -23.46745,65.38035 11.50405,35.73322 93.88676,-31.60266 193.10349,-42.284601 291.06139,-53.558254 50.37826,6.510199 -26.15387,16.744314 -42.32636,20.518304 -87.72311,15.91374 -179.11372,21.52933 -262.11743,56.30606 -41.01932,10.2533 -54.00887,66.09526 -16.9922,87.65983 -30.97056,28.38208 -32.50132,70.15381 3.08773,91.8805 -32.02169,20.77919 -32.19866,82.49671 12.86275,86.17687 -3.2472,33.50223 15.75761,73.01699 33.38799,105.83659 7.36112,18.43678 37.98907,3.98213 54.22943,9.55594 9.8825,-1.17354 24.40465,2.95457 32.4243,-1.74532 z m 216.53453,-4.16102 c 9.80938,-28.06653 63.87561,-78.00789 19.48006,-95.95295 -52.01973,8.50154 -104.20673,15.54347 -156.80596,19.74491 33.54957,2.64278 68.06712,18.46607 97.24789,-1.07899 -4.61464,25.64337 -47.87844,59.7819 -38.45338,81.09452 25.55567,0.37956 51.11776,0.49623 76.66649,1.20957 l 1.8649,-5.01706 0,0 z M 408.21864,386.77719 c 7.37142,-10.92273 -48.46027,0.70297 -11.54754,1.27 l 5.74477,-0.40933 5.80277,-0.86067 0,0 z m -27.36712,-87.75208 c 34.92473,-6.91306 -32.23129,-0.44651 -6.43522,0.60436 l 6.43522,-0.60436 0,0 z m -16.64796,-86.69533 c 27.69582,-8.49466 -35.6036,3.62192 0,0 z" id="path2830"/>
  </g>
  <metadata>
    <rdf:RDF>
      <cc:Work>
        <dc:format>image/svg+xml</dc:format>
        <dc:type rdf:resource="http://purl.org/dc/dcmitype/StillImage"/>
        <cc:license rdf:resource="http://creativecommons.org/licenses/publicdomain/"/>
        <dc:publisher>
          <cc:Agent rdf:about="http://openclipart.org/">
            <dc:title>Open Clip Art Library</dc:title>
          </cc:Agent>
        </dc:publisher>
        <dc:title>Compact Fluorescent Bulb</dc:title>
        <dc:date>2012-01-21T21:49:55</dc:date>
        <dc:description>Compact fluorescent bulb</dc:description>
        <dc:source>http://openclipart.org/detail/167300/compact-fluorescent-bulb-by-dripsandcastle</dc:source>
        <dc:creator>
          <cc:Agent>
            <dc:title>dripsandcastle</dc:title>
          </cc:Agent>
        </dc:creator>
        <dc:subject>
          <rdf:Bag>
            <rdf:li>cfl</rdf:li>
            <rdf:li>clip art</rdf:li>
            <rdf:li>clipart</rdf:li>
            <rdf:li>compact fluorescent bulb</rdf:li>
            <rdf:li>light bulb</rdf:li>
          </rdf:Bag>
        </dc:subject>
      </cc:Work>
      <cc:License rdf:about="http://creativecommons.org/licenses/publicdomain/">
        <cc:permits rdf:resource="http://creativecommons.org/ns#Reproduction"/>
        <cc:permits rdf:resource="http://creativecommons.org/ns#Distribution"/>
        <cc:permits rdf:resource="http://creativecommons.org/ns#DerivativeWorks"/>
      </cc:License>
    </rdf:RDF>
  </metadata>
</svg>
